<?xml version="1.0" encoding="UTF-8"?>
<svg id="Layer_1" xmlns="http://www.w3.org/2000/svg" version="1.1" viewBox="0 0 1504 334">
  <!-- Generator: Adobe Illustrator 29.6.1, SVG Export Plug-In . SVG Version: 2.1.1 Build 9)  -->
  <defs>
    <style>
      .st0 {
        fill: #161616;
      }
    </style>
  </defs>
  <path class="st0" d="M93.94,89.89v14.56h68.16v35h-68.16v123.49h-41.47v-123.49H9.15v-35h43.32v-14.56c0-11.78,1.96-22.18,6.01-30.73,4.16-9.01,10.97-16.06,20.22-20.91,8.89-4.62,20.33-7.16,33.96-7.62,13.17-.35,29.46,1.27,48.4,4.97l5.55,1.04v35.35l-8.2-1.62c-13.75-2.77-25.3-4.16-34.2-4.27-8.32-.12-14.9.92-19.52,2.89-4.04,1.73-6.7,4.16-8.2,7.28-1.62,3.7-2.54,8.2-2.54,13.63Z"/>
  <path class="st0" d="M373.38,138.18c-5.31-11.32-12.82-21.02-22.41-28.88-9.47-7.74-20.91-13.75-33.85-17.67-12.82-3.93-27.14-5.89-42.51-5.89s-29.81,1.96-42.63,5.89c-13.05,3.93-24.61,9.93-33.96,17.67-9.59,7.86-17.1,17.56-22.29,28.88-5.2,11.32-7.85,24.37-7.85,38.81s2.65,27.27,7.85,38.7c5.2,11.44,12.7,21.14,22.41,28.99,9.47,7.74,20.91,13.75,34.08,17.68,12.82,3.93,27.26,5.89,42.62,5.89s29.69-1.96,42.51-5.89c13.05-3.93,24.37-9.93,33.85-17.68,9.59-7.85,17.1-17.56,22.41-28.99,5.31-11.32,7.97-24.38,7.97-38.7s-2.89-27.61-8.2-38.81ZM274.5,233.25c-9.01,0-17.68-1.04-25.76-3.23-7.85-2.08-14.78-5.43-20.56-9.93-5.78-4.39-10.4-10.17-13.87-17.21-3.47-7.05-5.2-15.71-5.2-25.88s1.73-18.83,5.2-25.76c3.47-6.93,8.09-12.71,13.87-17.1,5.89-4.5,12.82-7.85,20.68-10.05,8.09-2.19,16.75-3.35,25.76-3.35s17.56,1.15,25.76,3.35c7.85,2.19,14.78,5.55,20.68,10.05,5.78,4.39,10.4,10.17,13.87,17.1,3.47,6.93,5.2,15.6,5.2,25.76s-1.96,18.83-5.43,25.88c-3.47,7.05-8.09,12.83-13.86,17.21-5.89,4.51-12.71,7.85-20.56,9.93-8.09,2.19-16.75,3.23-25.76,3.23Z"/>
  <path class="st0" d="M435.07,32.82h-41.47v230.23h41.47V32.82Z"/>
  <path class="st0" d="M491.79,32.82h-41.47v230.23h41.47V32.82Z"/>
  <path class="st0" d="M710.01,138.18c-5.31-11.32-12.82-21.02-22.41-28.88-9.47-7.74-20.79-13.75-33.85-17.67-12.82-3.93-27.15-5.89-42.51-5.89s-29.69,1.96-42.62,5.89c-13.05,3.93-24.49,9.93-34.08,17.67-9.59,7.86-17.1,17.56-22.29,28.88-5.2,11.32-7.85,24.37-7.85,38.81s2.65,27.27,7.85,38.7c5.2,11.44,12.7,21.14,22.29,28.99,9.47,7.74,20.91,13.75,34.08,17.68,12.94,3.93,27.26,5.89,42.62,5.89s29.69-1.96,42.51-5.89c13.05-3.93,24.37-9.93,33.85-17.68,9.59-7.85,17.1-17.56,22.53-28.99,5.31-11.32,7.97-24.38,7.97-38.7s-2.77-27.61-8.09-38.81ZM611.13,233.25c-9.01,0-17.68-1.04-25.76-3.23-7.85-2.08-14.78-5.43-20.56-9.93-5.77-4.39-10.4-10.17-13.86-17.21-3.47-7.05-5.2-15.71-5.2-25.88s1.73-18.83,5.2-25.76c3.47-6.93,8.09-12.71,13.86-17.1,5.9-4.5,12.83-7.85,20.68-10.05,8.09-2.19,16.75-3.35,25.76-3.35s17.68,1.15,25.76,3.35c7.85,2.19,14.78,5.55,20.68,10.05,5.78,4.39,10.4,10.17,13.86,17.1,3.47,6.93,5.2,15.6,5.2,25.76s-1.74,18.83-5.2,25.88c-3.47,7.05-8.08,12.83-13.86,17.21-5.89,4.51-12.82,7.85-20.56,9.93-8.32,2.19-16.98,3.23-25.99,3.23Z"/>
  <path class="st0" d="M1010.47,91.04l-72.08,171.89h-34.08l-48.29-107.66-47.94,107.66h-34.08l-72.09-171.89h41.59l48.4,117.6,47.13-105.82h34.31l47.13,105.82,48.4-117.6h41.58Z"/>
  <path class="st0" d="M1064.19,91.04h-41.47v171.89h41.47V91.04Z"/>
  <path class="st0" d="M1281.02,162.9v100.04h-41.47v-100.15c0-6.82-1.04-12.94-3-18.14-1.96-4.97-4.85-9.01-9.13-12.48-4.39-3.58-10.4-6.35-17.79-8.32-7.74-2.08-17.56-3.12-29-3.12-9.47,0-17.91,1.04-24.95,3.12-7.05,2.08-12.82,4.62-17.44,7.74-4.27,3-7.63,6.47-9.82,10.39-2.2,3.82-3.35,7.51-3.47,11.44v109.52h-41.47V91.04h35.81l2.2,16.87c5.31-4.85,11.66-9.13,19.06-12.71,12.94-6.24,29.8-9.47,49.79-9.47,30.26,0,53.14,6.7,68.04,19.75,15.02,13.28,22.64,32.58,22.64,57.41Z"/>
  <path class="st0" d="M1459.96,91.04l-2.78,19.41c-6.01-6.35-13.28-11.44-21.83-15.25-13.74-6.24-29.57-9.47-47.02-9.47-12.59,0-24.6,1.73-35.58,5.31-11.32,3.58-21.26,9.13-29.8,16.4-8.55,7.39-15.37,16.75-20.34,27.96-4.85,11.09-7.39,24.14-7.39,39.04s2.54,27.96,7.74,39.05c5.08,11.09,12.13,20.45,20.91,27.84,8.66,7.39,18.83,12.82,30.03,16.4,11.09,3.47,22.64,5.2,34.54,5.2,7.85,0,15.6-.69,22.99-1.96,7.51-1.27,14.67-3.47,21.37-6.36,6.7-2.89,13.05-6.7,18.6-11.09.69-.58,1.38-1.16,2.08-1.74v14.21c0,5.77-.92,10.97-2.78,15.25-1.73,4.04-4.62,7.39-8.66,10.17-4.39,3-10.28,5.43-17.56,7.05-7.63,1.73-17.21,2.65-28.42,2.65-9.59,0-18.14-.58-25.53-1.85-7.16-1.16-13.17-3-17.91-5.43-4.27-2.2-7.51-4.62-9.36-7.28-1.74-2.31-2.31-4.85-2.08-7.62l.58-7.63-40.67,1.16-.57,6.01c-1.16,12.01,1.96,28.88,23.33,41.7,16.06,9.59,39.74,14.21,72.43,14.21,16.98,0,31.88-1.5,44.01-4.51,12.48-3.12,22.87-7.51,30.84-13.4,8.2-6,14.33-13.4,18.14-21.95,3.7-8.32,5.55-17.79,5.55-28.18V91.04h-34.89ZM1453.38,160.59v25.3c0,7.28-1.62,13.29-4.85,18.37-3.35,5.31-7.86,9.7-13.17,13.17-5.55,3.58-11.9,6.24-18.95,7.97-7.16,1.74-14.56,2.66-21.83,2.66-8.32,0-16.17-1.16-23.33-3.47-6.93-2.2-13.05-5.55-18.26-9.93-5.08-4.28-9.12-9.82-12.13-16.4-3-6.7-4.51-14.67-4.51-23.8s1.5-17.21,4.51-23.8c3-6.59,7.05-12.13,12.13-16.4,5.2-4.39,11.32-7.74,18.26-9.93,7.16-2.31,15.02-3.47,23.33-3.47,7.05,0,14.21.81,21.25,2.43,6.82,1.62,13.17,4.16,18.72,7.62,5.43,3.35,9.82,7.51,13.28,12.59,3.47,4.74,5.31,10.4,5.55,17.1Z"/>
  <path class="st0" d="M1043.4,69.67c16.59,0,30.04-13.45,30.04-30.03s-13.45-30.04-30.04-30.04-30.03,13.45-30.03,30.04,13.44,30.03,30.03,30.03Z"/>
</svg>